# xmcd
#
# Track frame offsets:
#  150
#  20040
#  36852
#  56592
#  75267
#  101840
#  115317
#  138675
#  151185
#  167837
#  180265
#  200647
#  217217
#  236152
#
# Disc length: 3376 seconds
#
# Revision: 0
# Processed by: cddbd v1.5.1PL2 Copyright (c) Steve Scherf et al.
# Submitted via: Collectorz.com_Music_Collector 6.9
#
DISCID=c50d2e0e
DTITLE=Various Artist - Rock Best Of 100 Artists - Volume 8
DYEAR=1900
DGENRE=Rock
TTITLE0=Eric Clapton - I Shot The Sheriff
TTITLE1=Eric Clapton - Wonderful Tonight
TTITLE2=Rod Stewart - Sailing
TTITLE3=Paul Mc Cartney and the Wings - My Love 
TTITLE4=Queen - Bohemian Rhapsody
TTITLE5=Queen - Killer Queen
TTITLE6=Kiss - Black Diamond 
TTITLE7=Kiss - Rock And Roll All Nite
TTITLE8=Linda Ronstadt - You're No Good
TTITLE9=Linda Ronstadt - Heat Wave
TTITLE10=Bruce Springsteen - Born To Run
TTITLE11=Aerosmith - Walk This Way
TTITLE12=Bad Company - Can't Get Enough
TTITLE13=Bachman Turner Overdrive - You Ain't Seen Nothin' Yet
EXTD=
EXTT0=
EXTT1=
EXTT2=
EXTT3=
EXTT4=
EXTT5=
EXTT6=
EXTT7=
EXTT8=
EXTT9=
EXTT10=
EXTT11=
EXTT12=
EXTT13=
PLAYORDER=
